<svg width="21" height="21" viewBox="0 0 21 21" fill="none" xmlns="http://www.w3.org/2000/svg">
<path d="M15.3802 3.58984C15.0675 3.58984 14.7676 3.71406 14.5465 3.93517C14.3254 4.15627 14.2012 4.45615 14.2012 4.76884C14.201 4.92375 14.2314 5.07717 14.2906 5.22033C14.3498 5.36349 14.4366 5.49358 14.5461 5.60317C14.6556 5.71275 14.7856 5.79969 14.9288 5.859C15.0719 5.91831 15.2253 5.94884 15.3802 5.94884C15.6929 5.94884 15.9927 5.82463 16.2139 5.60352C16.435 5.38242 16.5592 5.08253 16.5592 4.76984C16.5593 4.61493 16.5289 4.46151 16.4697 4.31835C16.4105 4.17519 16.3237 4.0451 16.2142 3.93552C16.1047 3.82593 15.9747 3.739 15.8316 3.67968C15.6885 3.62037 15.5351 3.58984 15.3802 3.58984Z" fill="white"/>
<path d="M10.1385 5.10205C8.82575 5.10337 7.56711 5.62539 6.63875 6.55357C5.71038 7.48174 5.18811 8.74028 5.18652 10.0531C5.18811 11.3659 5.71035 12.6246 6.63869 13.5529C7.56702 14.4812 8.82566 15.0035 10.1385 15.0051C11.4514 15.0035 12.71 14.4812 13.6384 13.5529C14.5667 12.6246 15.0889 11.3659 15.0905 10.0531C15.0889 8.74028 14.5667 7.48174 13.6383 6.55357C12.7099 5.62539 11.4513 5.10337 10.1385 5.10205ZM10.1385 13.2251C9.29733 13.2243 8.49082 12.8897 7.8961 12.2948C7.30138 11.6999 6.96705 10.8932 6.96652 10.0521C6.96732 9.21103 7.30177 8.40468 7.89646 7.80999C8.49115 7.21529 9.2975 6.88084 10.1385 6.88005C10.9795 6.88084 11.7859 7.21529 12.3806 7.80999C12.9753 8.40468 13.3097 9.21103 13.3105 10.0521C13.31 10.8932 12.9757 11.6999 12.3809 12.2948C11.7862 12.8897 10.9797 13.2243 10.1385 13.2251Z" fill="white"/>
<path d="M14.071 20.107H6.039C4.43792 20.1051 2.90296 19.4683 1.77083 18.3362C0.638697 17.204 0.00185264 15.6691 0 14.068V6.04C0.00158799 4.43875 0.638318 2.90353 1.77048 1.77118C2.90264 0.638836 4.43775 0.00185312 6.039 0H14.067C15.6681 0.00185264 17.203 0.638697 18.3352 1.77083C19.4673 2.90296 20.1041 4.43793 20.106 6.039V14.067C20.1044 15.6676 19.4682 17.2022 18.3369 18.3344C17.2056 19.4666 15.6716 20.1041 14.071 20.107ZM6.039 1.892C4.93955 1.89332 3.88552 2.33066 3.10809 3.10809C2.33066 3.88552 1.89333 4.93955 1.892 6.039V14.067C1.89174 15.1675 2.32837 16.2231 3.10597 17.0018C3.88357 17.7805 4.93851 18.2187 6.039 18.22H14.067C15.1667 18.2189 16.2211 17.7818 16.9989 17.0043C17.7767 16.2269 18.2144 15.1727 18.216 14.073V6.045C18.2144 4.94529 17.7767 3.8911 16.9989 3.11367C16.2211 2.33625 15.1667 1.89906 14.067 1.898L6.039 1.892Z" fill="white"/>
</svg>
