<svg width="170" height="30" viewBox="0 0 170 30" fill="none" xmlns="http://www.w3.org/2000/svg">
<path d="M3.34125 3.39278C2.51983 3.53093 1.77687 3.91777 1.17695 4.51646C0.733939 4.96317 0.544736 5.23948 0.300156 5.81514C-0.0182596 6.54738 0.000199252 6.07764 0.000199252 14.4132C0.000199252 22.5691 -0.00903018 22.2467 0.254009 22.9375C0.433983 23.421 0.710866 23.8539 1.10312 24.2638C1.6615 24.8487 2.26141 25.1987 3.05514 25.4105L3.43816 25.5118L10.7986 25.5302C16.0363 25.5395 18.2929 25.5302 18.616 25.4934C19.5758 25.3829 20.3511 25.0191 21.0156 24.3605C21.5094 23.8724 21.8001 23.398 22.0401 22.6842L22.1739 22.2928V14.4638V6.63488L22.0678 6.27106C21.6801 4.93093 20.6741 3.92238 19.3128 3.49409L18.8975 3.36514L11.237 3.36054C7.0238 3.35593 3.47047 3.36975 3.34125 3.39278ZM8.25593 11.6961C9.81109 13.1882 11.0709 14.427 11.0663 14.4454C11.0571 14.4638 9.77879 15.7026 8.22363 17.1993L5.39019 19.921L4.65645 19.2164C4.25497 18.8342 3.92271 18.4934 3.92732 18.4704C3.92732 18.4428 4.86411 17.5309 6.00395 16.4441C7.13917 15.3526 8.07134 14.45 8.07595 14.4362C8.07595 14.4178 7.14378 13.5059 5.99933 12.4099C4.8595 11.3138 3.92271 10.4066 3.92271 10.3928C3.92271 10.3329 5.33481 8.96053 5.38096 8.96974C5.41326 8.97895 6.70538 10.2039 8.25593 11.6961ZM18.3206 19.0691V19.921H15.6441H12.9676V19.0691V18.2171H15.6441H18.3206V19.0691Z" fill="white"/>
<path d="M35.3305 24H29.3036V6.21441H35.4521C37.2179 6.21441 38.7348 6.57047 40.0027 7.28259C41.2764 7.98892 42.2548 9.00499 42.938 10.3308C43.6212 11.6566 43.9628 13.243 43.9628 15.0898C43.9628 16.9425 43.6183 18.5346 42.9293 19.8662C42.2462 21.1978 41.259 22.2197 39.968 22.9318C38.6827 23.6439 37.1369 24 35.3305 24ZM32.5255 21.2123H35.1742C36.4132 21.2123 37.4466 20.9865 38.2745 20.5349C39.1024 20.0776 39.7248 19.3973 40.1417 18.4941C40.5585 17.5851 40.7669 16.4504 40.7669 15.0898C40.7669 13.7293 40.5585 12.6003 40.1417 11.7029C39.7248 10.7998 39.1082 10.1253 38.2919 9.67948C37.4813 9.22789 36.474 9.0021 35.2697 9.0021H32.5255V21.2123ZM46.6405 24V10.6608H49.7842V24H46.6405ZM48.2211 8.76762C47.7232 8.76762 47.2947 8.60262 46.9358 8.27261C46.5768 7.93681 46.3973 7.53444 46.3973 7.06548C46.3973 6.59074 46.5768 6.18836 46.9358 5.85835C47.2947 5.52256 47.7232 5.35466 48.2211 5.35466C48.7248 5.35466 49.1532 5.52256 49.5063 5.85835C49.8653 6.18836 50.0448 6.59074 50.0448 7.06548C50.0448 7.53444 49.8653 7.93681 49.5063 8.27261C49.1532 8.60262 48.7248 8.76762 48.2211 8.76762ZM58.5736 29.2801C57.4446 29.2801 56.4749 29.1267 55.6643 28.8198C54.8538 28.5188 54.2025 28.1135 53.7104 27.604C53.2183 27.0945 52.8767 26.53 52.6856 25.9106L55.5167 25.2245C55.6441 25.485 55.8294 25.7427 56.0725 25.9974C56.3157 26.2579 56.6428 26.4721 57.0538 26.64C57.4707 26.8137 57.9947 26.9006 58.6257 26.9006C59.5173 26.9006 60.2555 26.6835 60.8402 26.2493C61.425 25.8208 61.7174 25.1145 61.7174 24.1303V21.6031H61.561C61.3989 21.9273 61.1616 22.2602 60.8489 22.6018C60.5421 22.9434 60.1339 23.23 59.6244 23.4616C59.1207 23.6932 58.4868 23.8089 57.7225 23.8089C56.6978 23.8089 55.7686 23.5687 54.9349 23.0881C54.107 22.6018 53.4469 21.8781 52.9548 20.917C52.4685 19.9502 52.2253 18.7402 52.2253 17.287C52.2253 15.8222 52.4685 14.5861 52.9548 13.5788C53.4469 12.5656 54.1098 11.7985 54.9435 11.2774C55.7772 10.7505 56.7065 10.4871 57.7312 10.4871C58.5128 10.4871 59.1555 10.6203 59.6592 10.8866C60.1686 11.1471 60.5739 11.4627 60.875 11.8332C61.176 12.1979 61.4047 12.5424 61.561 12.8666H61.7347V10.6608H64.835V24.2171C64.835 25.3577 64.5629 26.3014 64.0187 27.0482C63.4745 27.7951 62.7305 28.3538 61.7868 28.7243C60.8431 29.0948 59.7721 29.2801 58.5736 29.2801ZM58.5997 21.3426C59.2655 21.3426 59.8328 21.1805 60.3018 20.8563C60.7708 20.532 61.1268 20.066 61.37 19.4581C61.6131 18.8502 61.7347 18.1207 61.7347 17.2696C61.7347 16.4301 61.6131 15.6948 61.37 15.0638C61.1326 14.4327 60.7794 13.9435 60.3105 13.5961C59.8473 13.243 59.277 13.0664 58.5997 13.0664C57.8991 13.0664 57.3144 13.2488 56.8454 13.6135C56.3765 13.9782 56.0233 14.479 55.7859 15.1159C55.5486 15.747 55.4299 16.4649 55.4299 17.2696C55.4299 18.0859 55.5486 18.801 55.7859 19.4147C56.0291 20.0226 56.3852 20.4973 56.8541 20.8389C57.3289 21.1747 57.9107 21.3426 58.5997 21.3426ZM67.8124 24V10.6608H70.9561V24H67.8124ZM69.3929 8.76762C68.895 8.76762 68.4666 8.60262 68.1077 8.27261C67.7487 7.93681 67.5692 7.53444 67.5692 7.06548C67.5692 6.59074 67.7487 6.18836 68.1077 5.85835C68.4666 5.52256 68.895 5.35466 69.3929 5.35466C69.8966 5.35466 70.3251 5.52256 70.6782 5.85835C71.0372 6.18836 71.2167 6.59074 71.2167 7.06548C71.2167 7.53444 71.0372 7.93681 70.6782 8.27261C70.3251 8.60262 69.8966 8.76762 69.3929 8.76762ZM80.6052 10.6608V13.0924H72.9369V10.6608H80.6052ZM74.8301 7.46496H77.9739V19.9878C77.9739 20.4105 78.0376 20.7347 78.1649 20.9605C78.2981 21.1805 78.4718 21.331 78.686 21.4121C78.9002 21.4931 79.1376 21.5336 79.3981 21.5336C79.595 21.5336 79.7744 21.5192 79.9365 21.4902C80.1044 21.4613 80.2318 21.4352 80.3187 21.4121L80.8484 23.8697C80.6805 23.9276 80.4402 23.9913 80.1276 24.0608C79.8208 24.1303 79.4444 24.1708 78.9986 24.1824C78.2113 24.2055 77.502 24.0868 76.871 23.8263C76.2399 23.56 75.7391 23.1489 75.3686 22.5931C75.0038 22.0373 74.8243 21.3426 74.8301 20.5089V7.46496ZM86.8284 24.2692C85.9831 24.2692 85.2218 24.1187 84.5444 23.8176C83.8728 23.5108 83.3402 23.0592 82.9465 22.4629C82.5586 21.8665 82.3646 21.1313 82.3646 20.257C82.3646 19.5044 82.5036 18.882 82.7815 18.3899C83.0594 17.8978 83.4386 17.5041 83.9191 17.2088C84.3996 16.9136 84.941 16.6907 85.5431 16.5401C86.151 16.3838 86.7792 16.2709 87.4276 16.2014C88.2092 16.1204 88.8431 16.048 89.3295 15.9843C89.8158 15.9149 90.169 15.8106 90.389 15.6717C90.6148 15.527 90.7277 15.3041 90.7277 15.003V14.9509C90.7277 14.2967 90.5337 13.7901 90.1458 13.4311C89.7579 13.0722 89.1992 12.8927 88.4697 12.8927C87.6997 12.8927 87.0889 13.0606 86.6373 13.3964C86.1915 13.7322 85.8905 14.1288 85.7341 14.5861L82.7988 14.1693C83.0304 13.3588 83.4125 12.6814 83.9452 12.1372C84.4778 11.5871 85.1291 11.1761 85.8991 10.904C86.6692 10.6261 87.5202 10.4871 88.4524 10.4871C89.095 10.4871 89.7347 10.5624 90.3716 10.7129C91.0085 10.8634 91.5903 11.1124 92.1172 11.4598C92.644 11.8014 93.0666 12.2674 93.3851 12.858C93.7093 13.4485 93.8714 14.1867 93.8714 15.0725V24H90.8492V22.1676H90.745C90.554 22.5381 90.2848 22.8855 89.9374 23.2097C89.5958 23.5281 89.1645 23.7858 88.6434 23.9826C88.1281 24.1737 87.5231 24.2692 86.8284 24.2692ZM87.6447 21.9592C88.2758 21.9592 88.8229 21.8347 89.2861 21.5857C89.7492 21.331 90.1053 20.9952 90.3542 20.5784C90.609 20.1615 90.7363 19.707 90.7363 19.2149V17.643C90.6379 17.7241 90.47 17.7994 90.2326 17.8688C90.0011 17.9383 89.7405 17.9991 89.4511 18.0512C89.1616 18.1033 88.875 18.1496 88.5913 18.1902C88.3076 18.2307 88.0616 18.2654 87.8531 18.2944C87.3842 18.3581 86.9644 18.4623 86.5939 18.607C86.2234 18.7517 85.931 18.9544 85.7168 19.2149C85.5026 19.4697 85.3955 19.7997 85.3955 20.2049C85.3955 20.7839 85.6068 21.221 86.0294 21.5163C86.4521 21.8115 86.9905 21.9592 87.6447 21.9592ZM99.9317 6.21441V24H96.788V6.21441H99.9317ZM118.546 11.1037C118.465 10.3453 118.123 9.75474 117.521 9.3321C116.925 8.90946 116.149 8.69814 115.194 8.69814C114.522 8.69814 113.946 8.79946 113.466 9.0021C112.985 9.20473 112.617 9.47974 112.363 9.82711C112.108 10.1745 111.978 10.5711 111.972 11.0169C111.972 11.3874 112.056 11.7087 112.224 11.9808C112.397 12.2529 112.632 12.4845 112.927 12.6756C113.223 12.8609 113.55 13.0172 113.909 13.1445C114.268 13.2719 114.629 13.379 114.994 13.4659L116.662 13.8827C117.333 14.039 117.979 14.2503 118.598 14.5167C119.223 14.783 119.782 15.1188 120.274 15.5241C120.772 15.9293 121.166 16.4185 121.455 16.9917C121.745 17.5649 121.89 18.2365 121.89 19.0065C121.89 20.0486 121.623 20.9663 121.091 21.7594C120.558 22.5468 119.788 23.1634 118.781 23.6092C117.779 24.0492 116.566 24.2692 115.142 24.2692C113.758 24.2692 112.557 24.055 111.538 23.6266C110.525 23.1981 109.731 22.5729 109.158 21.7507C108.591 20.9286 108.284 19.927 108.238 18.746H111.407C111.454 19.3654 111.645 19.8807 111.981 20.2918C112.316 20.7028 112.754 21.0097 113.292 21.2123C113.836 21.415 114.444 21.5163 115.116 21.5163C115.816 21.5163 116.43 21.4121 116.957 21.2036C117.489 20.9894 117.906 20.6942 118.207 20.3178C118.508 19.9357 118.662 19.4899 118.668 18.9804C118.662 18.5173 118.526 18.1352 118.259 17.8341C117.993 17.5273 117.62 17.2725 117.139 17.0699C116.664 16.8614 116.109 16.6762 115.472 16.5141L113.448 15.993C111.984 15.6167 110.826 15.0464 109.975 14.2822C109.129 13.5122 108.707 12.4903 108.707 11.2166C108.707 10.1687 108.99 9.25105 109.558 8.46367C110.131 7.67628 110.91 7.06548 111.894 6.63126C112.878 6.19126 113.993 5.97125 115.237 5.97125C116.499 5.97125 117.605 6.19126 118.555 6.63126C119.51 7.06548 120.26 7.67049 120.804 8.4463C121.348 9.21631 121.629 10.1021 121.646 11.1037H118.546ZM131.039 10.6608V13.0924H123.371V10.6608H131.039ZM125.264 7.46496H128.408V19.9878C128.408 20.4105 128.472 20.7347 128.599 20.9605C128.732 21.1805 128.906 21.331 129.12 21.4121C129.334 21.4931 129.572 21.5336 129.832 21.5336C130.029 21.5336 130.208 21.5192 130.371 21.4902C130.538 21.4613 130.666 21.4352 130.753 21.4121L131.282 23.8697C131.115 23.9276 130.874 23.9913 130.562 24.0608C130.255 24.1303 129.878 24.1708 129.433 24.1824C128.645 24.2055 127.936 24.0868 127.305 23.8263C126.674 23.56 126.173 23.1489 125.803 22.5931C125.438 22.0373 125.258 21.3426 125.264 20.5089V7.46496ZM139.099 24.2605C137.796 24.2605 136.668 23.9739 135.712 23.4008C134.757 22.8276 134.016 22.0258 133.489 20.9952C132.968 19.9647 132.707 18.7604 132.707 17.3825C132.707 16.0046 132.968 14.7975 133.489 13.7611C134.016 12.7248 134.757 11.92 135.712 11.3469C136.668 10.7737 137.796 10.4871 139.099 10.4871C140.402 10.4871 141.531 10.7737 142.486 11.3469C143.441 11.92 144.18 12.7248 144.701 13.7611C145.227 14.7975 145.491 16.0046 145.491 17.3825C145.491 18.7604 145.227 19.9647 144.701 20.9952C144.18 22.0258 143.441 22.8276 142.486 23.4008C141.531 23.9739 140.402 24.2605 139.099 24.2605ZM139.117 21.7421C139.823 21.7421 140.413 21.5481 140.888 21.1602C141.363 20.7665 141.716 20.2397 141.948 19.5797C142.185 18.9196 142.304 18.1844 142.304 17.3738C142.304 16.5575 142.185 15.8193 141.948 15.1593C141.716 14.4935 141.363 13.9638 140.888 13.5701C140.413 13.1764 139.823 12.9795 139.117 12.9795C138.393 12.9795 137.791 13.1764 137.31 13.5701C136.835 13.9638 136.479 14.4935 136.242 15.1593C136.01 15.8193 135.895 16.5575 135.895 17.3738C135.895 18.1844 136.01 18.9196 136.242 19.5797C136.479 20.2397 136.835 20.7665 137.31 21.1602C137.791 21.5481 138.393 21.7421 139.117 21.7421ZM147.915 24V10.6608H150.963V12.884H151.102C151.345 12.114 151.762 11.5206 152.352 11.1037C152.949 10.6811 153.629 10.4698 154.393 10.4698C154.567 10.4698 154.761 10.4784 154.975 10.4958C155.195 10.5074 155.377 10.5277 155.522 10.5566V13.4485C155.389 13.4022 155.178 13.3616 154.888 13.3269C154.604 13.2864 154.329 13.2661 154.063 13.2661C153.49 13.2661 152.975 13.3906 152.517 13.6395C152.066 13.8827 151.71 14.2214 151.449 14.6556C151.189 15.0898 151.058 15.5906 151.058 16.158V24H147.915ZM162.722 24.2605C161.385 24.2605 160.23 23.9826 159.257 23.4268C158.29 22.8652 157.546 22.0721 157.025 21.0473C156.504 20.0168 156.244 18.8039 156.244 17.4086C156.244 16.0364 156.504 14.8322 157.025 13.7959C157.552 12.7537 158.287 11.9432 159.231 11.3642C160.175 10.7795 161.283 10.4871 162.557 10.4871C163.379 10.4871 164.155 10.6203 164.885 10.8866C165.62 11.1471 166.268 11.5524 166.83 12.1024C167.397 12.6524 167.843 13.353 168.167 14.204C168.492 15.0493 168.654 16.0567 168.654 17.2262V18.1902H157.72V16.0712H165.64C165.634 15.4691 165.504 14.9335 165.249 14.4646C164.995 13.9898 164.639 13.6164 164.181 13.3443C163.73 13.0722 163.203 12.9361 162.601 12.9361C161.958 12.9361 161.393 13.0924 160.907 13.4051C160.421 13.7119 160.042 14.1172 159.77 14.6209C159.503 15.1188 159.367 15.6659 159.361 16.2622V18.112C159.361 18.8878 159.503 19.5536 159.787 20.1094C160.071 20.6594 160.467 21.0821 160.977 21.3773C161.486 21.6668 162.082 21.8115 162.766 21.8115C163.223 21.8115 163.637 21.7479 164.007 21.6205C164.378 21.4873 164.699 21.2934 164.971 21.0386C165.244 20.7839 165.449 20.4684 165.588 20.092L168.523 20.422C168.338 21.1978 167.985 21.8752 167.464 22.4542C166.949 23.0274 166.289 23.4731 165.484 23.7916C164.679 24.1042 163.759 24.2605 162.722 24.2605Z" fill="white"/>
</svg>
