<svg width="138" height="24" viewBox="0 0 138 24" fill="none" xmlns="http://www.w3.org/2000/svg">
<path d="M2.71231 2.75418C2.04551 2.86633 1.4424 3.18036 0.955408 3.66635C0.595786 4.02897 0.442197 4.25327 0.243656 4.72057C-0.0148225 5.31497 0.000161746 4.93366 0.000161746 11.7001C0.000161746 18.3208 -0.00733038 18.0591 0.206195 18.6199C0.352292 19.0124 0.577056 19.3638 0.895471 19.6965C1.34874 20.1713 1.83573 20.4554 2.48006 20.6274L2.79098 20.7096L8.76595 20.7246C13.0177 20.7321 14.8496 20.7246 15.1118 20.6947C15.891 20.605 16.5203 20.3096 17.0597 19.775C17.4606 19.3788 17.6966 18.9937 17.8914 18.4143L18 18.0965V11.7413V5.386L17.9138 5.09067C17.5992 4.0028 16.7825 3.1841 15.6774 2.83643L15.3403 2.73175L9.12183 2.72801C5.70167 2.72427 2.8172 2.73549 2.71231 2.75418ZM6.70187 9.49449C7.96429 10.7057 8.98697 11.7114 8.98322 11.7263C8.97573 11.7413 7.93807 12.7469 6.67565 13.9619L4.37557 16.1712L3.77994 15.5993C3.45403 15.289 3.18432 15.0123 3.18806 14.9937C3.18806 14.9712 3.94851 14.231 4.87379 13.3488C5.79532 12.4628 6.55203 11.73 6.55577 11.7188C6.55577 11.7039 5.79907 10.9637 4.87005 10.0739C3.94477 9.1842 3.18432 8.44774 3.18432 8.43653C3.18432 8.38793 4.33061 7.27389 4.36807 7.28136C4.3943 7.28884 5.44319 8.28325 6.70187 9.49449ZM14.872 15.4796V16.1712H12.6993H10.5266V15.4796V14.788H12.6993H14.872V15.4796Z" fill="#C92071"/>
<path d="M28.6803 19H23.7878V4.56229H28.779C30.2124 4.56229 31.4437 4.85133 32.473 5.4294C33.5069 6.00277 34.3012 6.82758 34.8558 7.90383C35.4103 8.98008 35.6876 10.2678 35.6876 11.767C35.6876 13.271 35.408 14.5634 34.8487 15.6444C34.2942 16.7253 33.4928 17.5548 32.4448 18.1329C31.4014 18.711 30.1466 19 28.6803 19ZM26.4032 16.7371H28.5534C29.5591 16.7371 30.398 16.5538 31.0701 16.1872C31.7422 15.8159 32.2474 15.2637 32.5858 14.5305C32.9242 13.7926 33.0934 12.8715 33.0934 11.767C33.0934 10.6626 32.9242 9.74614 32.5858 9.01768C32.2474 8.28451 31.7469 7.73699 31.0842 7.37511C30.4262 7.00852 29.6085 6.82523 28.6309 6.82523H26.4032V16.7371ZM37.8613 19V8.17172H40.4133V19H37.8613ZM39.1444 6.63489C38.7402 6.63489 38.3924 6.50095 38.101 6.23306C37.8096 5.96047 37.6639 5.63384 37.6639 5.25316C37.6639 4.86777 37.8096 4.54114 38.101 4.27325C38.3924 4.00067 38.7402 3.86437 39.1444 3.86437C39.5532 3.86437 39.901 4.00067 40.1877 4.27325C40.4791 4.54114 40.6248 4.86777 40.6248 5.25316C40.6248 5.63384 40.4791 5.96047 40.1877 6.23306C39.901 6.50095 39.5532 6.63489 39.1444 6.63489ZM47.5482 23.2862C46.6317 23.2862 45.8445 23.1617 45.1866 22.9126C44.5286 22.6682 43.9999 22.3392 43.6004 21.9256C43.2009 21.512 42.9236 21.0538 42.7685 20.5509L45.0667 19.994C45.1701 20.2055 45.3205 20.4146 45.5179 20.6214C45.7153 20.8329 45.9808 21.0068 46.3145 21.1431C46.6529 21.2841 47.0782 21.3546 47.5905 21.3546C48.3143 21.3546 48.9135 21.1783 49.3882 20.8259C49.8628 20.4781 50.1002 19.9047 50.1002 19.1057V17.0543H49.9733C49.8417 17.3175 49.649 17.5877 49.3952 17.865C49.1461 18.1423 48.8148 18.3749 48.4012 18.5629C47.9923 18.7509 47.4777 18.8449 46.8573 18.8449C46.0255 18.8449 45.2712 18.6499 44.5944 18.2598C43.9223 17.865 43.3865 17.2775 42.9871 16.4974C42.5923 15.7125 42.3949 14.7303 42.3949 13.5506C42.3949 12.3616 42.5923 11.3582 42.9871 10.5404C43.3865 9.71794 43.9247 9.09522 44.6014 8.67224C45.2782 8.24456 46.0325 8.03072 46.8644 8.03072C47.4989 8.03072 48.0205 8.13882 48.4294 8.35501C48.843 8.5665 49.172 8.82264 49.4164 9.12342C49.6607 9.41951 49.8464 9.69914 49.9733 9.96233H50.1143V8.17172H52.631V19.1762C52.631 20.1021 52.4101 20.8682 51.9683 21.4744C51.5266 22.0807 50.9226 22.5342 50.1566 22.835C49.3905 23.1358 48.5211 23.2862 47.5482 23.2862ZM47.5693 16.8428C48.1098 16.8428 48.5704 16.7112 48.9511 16.448C49.3318 16.1848 49.6208 15.8065 49.8182 15.313C50.0156 14.8195 50.1143 14.2274 50.1143 13.5365C50.1143 12.855 50.0156 12.2582 49.8182 11.7459C49.6255 11.2336 49.3388 10.8365 48.9581 10.5545C48.5821 10.2678 48.1192 10.1245 47.5693 10.1245C47.0007 10.1245 46.526 10.2725 46.1453 10.5686C45.7646 10.8647 45.4779 11.2712 45.2853 11.7882C45.0926 12.3005 44.9962 12.8832 44.9962 13.5365C44.9962 14.1992 45.0926 14.7796 45.2853 15.2778C45.4826 15.7713 45.7717 16.1566 46.1524 16.4339C46.5377 16.7065 47.0101 16.8428 47.5693 16.8428ZM55.0479 19V8.17172H57.5999V19H55.0479ZM56.331 6.63489C55.9268 6.63489 55.579 6.50095 55.2876 6.23306C54.9962 5.96047 54.8505 5.63384 54.8505 5.25316C54.8505 4.86777 54.9962 4.54114 55.2876 4.27325C55.579 4.00067 55.9268 3.86437 56.331 3.86437C56.7398 3.86437 57.0876 4.00067 57.3743 4.27325C57.6657 4.54114 57.8114 4.86777 57.8114 5.25316C57.8114 5.63384 57.6657 5.96047 57.3743 6.23306C57.0876 6.50095 56.7398 6.63489 56.331 6.63489ZM65.4327 8.17172V10.1456H59.2078V8.17172H65.4327ZM60.7447 5.57744H63.2967V15.7431C63.2967 16.0861 63.3483 16.3493 63.4517 16.5326C63.5598 16.7112 63.7008 16.8334 63.8747 16.8992C64.0486 16.965 64.2413 16.9979 64.4528 16.9979C64.6126 16.9979 64.7583 16.9861 64.8899 16.9626C65.0262 16.9391 65.1296 16.918 65.2001 16.8992L65.6301 18.8943C65.4938 18.9413 65.2988 18.993 65.045 19.0493C64.7959 19.1057 64.4904 19.1386 64.1285 19.148C63.4893 19.1668 62.9136 19.0705 62.4013 18.859C61.8891 18.6428 61.4825 18.3091 61.1818 17.858C60.8857 17.4068 60.74 16.8428 60.7447 16.166V5.57744ZM70.4844 19.2185C69.7983 19.2185 69.1802 19.0963 68.6304 18.852C68.0852 18.6029 67.6528 18.2363 67.3332 17.7522C67.0183 17.2681 66.8609 16.6713 66.8609 15.9616C66.8609 15.3506 66.9737 14.8454 67.1993 14.4459C67.4249 14.0464 67.7327 13.7269 68.1228 13.4872C68.5129 13.2475 68.9523 13.0665 69.4411 12.9443C69.9345 12.8174 70.4445 12.7258 70.9708 12.6694C71.6053 12.6036 72.1199 12.5449 72.5147 12.4932C72.9095 12.4368 73.1962 12.3522 73.3748 12.2394C73.5581 12.1219 73.6497 11.9409 73.6497 11.6965V11.6543C73.6497 11.1232 73.4923 10.7119 73.1774 10.4206C72.8625 10.1292 72.409 9.98348 71.8168 9.98348C71.1917 9.98348 70.6959 10.1198 70.3293 10.3924C69.9674 10.6649 69.7231 10.9869 69.5962 11.3582L67.2134 11.0198C67.4014 10.3618 67.7116 9.81194 68.1439 9.37016C68.5763 8.92368 69.105 8.59 69.7301 8.36911C70.3552 8.14352 71.046 8.03072 71.8027 8.03072C72.3244 8.03072 72.8437 8.09182 73.3607 8.21401C73.8777 8.33621 74.35 8.5383 74.7777 8.82029C75.2053 9.09757 75.5484 9.4759 75.8069 9.95528C76.0701 10.4347 76.2017 11.0339 76.2017 11.7529V19H73.7484V17.5125H73.6638C73.5087 17.8133 73.2902 18.0953 73.0082 18.3585C72.7309 18.617 72.3808 18.8261 71.9578 18.9859C71.5395 19.141 71.0484 19.2185 70.4844 19.2185ZM71.1471 17.3433C71.6594 17.3433 72.1035 17.2423 72.4795 17.0402C72.8555 16.8334 73.1445 16.5608 73.3466 16.2224C73.5534 15.884 73.6568 15.5151 73.6568 15.1156V13.8396C73.5769 13.9054 73.4406 13.9665 73.2479 14.0229C73.0599 14.0793 72.8484 14.1287 72.6134 14.171C72.3784 14.2133 72.1458 14.2509 71.9155 14.2838C71.6852 14.3167 71.4855 14.3449 71.3163 14.3684C70.9356 14.4201 70.5949 14.5047 70.2941 14.6222C69.9933 14.7397 69.756 14.9041 69.5821 15.1156C69.4082 15.3224 69.3212 15.5903 69.3212 15.9193C69.3212 16.3893 69.4928 16.7441 69.8359 16.9838C70.1789 17.2235 70.616 17.3433 71.1471 17.3433ZM81.1212 4.56229V19H78.5693V4.56229H81.1212ZM96.2317 8.53125C96.1659 7.91558 95.8886 7.4362 95.3998 7.09312C94.9158 6.75003 94.286 6.57849 93.5105 6.57849C92.9654 6.57849 92.4977 6.66074 92.1076 6.82523C91.7176 6.98972 91.4191 7.21296 91.2123 7.49495C91.0055 7.77694 90.8998 8.09887 90.8951 8.46075C90.8951 8.76154 90.9632 9.02238 91.0995 9.24327C91.2405 9.46416 91.4309 9.65215 91.6706 9.80724C91.9103 9.95763 92.1758 10.0845 92.4672 10.1879C92.7586 10.2913 93.0523 10.3783 93.3484 10.4488L94.7019 10.7871C95.2471 10.914 95.7711 11.0856 96.274 11.3018C96.7816 11.518 97.2351 11.7905 97.6346 12.1195C98.0388 12.4485 98.3583 12.8456 98.5933 13.3109C98.8283 13.7762 98.9458 14.3214 98.9458 14.9464C98.9458 15.7924 98.7296 16.5373 98.2972 17.1812C97.8649 17.8204 97.2398 18.3209 96.422 18.6828C95.609 19.0399 94.6244 19.2185 93.4682 19.2185C92.345 19.2185 91.3698 19.0446 90.5426 18.6969C89.7202 18.3491 89.0763 17.8415 88.611 17.1741C88.1504 16.5068 87.9013 15.6937 87.8637 14.735H90.4369C90.4745 15.2378 90.6296 15.6561 90.9021 15.9898C91.1747 16.3235 91.5296 16.5726 91.9666 16.7371C92.4084 16.9016 92.9019 16.9838 93.4471 16.9838C94.0158 16.9838 94.5139 16.8992 94.9416 16.73C95.374 16.5561 95.7124 16.3164 95.9568 16.0109C96.2011 15.7008 96.3257 15.3389 96.3304 14.9253C96.3257 14.5493 96.2152 14.2391 95.9991 13.9947C95.7829 13.7457 95.4797 13.5389 95.0896 13.3744C94.7043 13.2052 94.2531 13.0548 93.7361 12.9232L92.0935 12.5002C90.9045 12.1947 89.9645 11.7318 89.2737 11.1114C88.5875 10.4864 88.2444 9.65685 88.2444 8.62289C88.2444 7.77224 88.4747 7.02732 88.9353 6.38815C89.4006 5.74898 90.0327 5.25316 90.8317 4.90067C91.6306 4.54349 92.5353 4.3649 93.5458 4.3649C94.5703 4.3649 95.468 4.54349 96.2387 4.90067C97.0142 5.25316 97.6228 5.74428 98.0646 6.37405C98.5064 6.99912 98.7343 7.71819 98.7484 8.53125H96.2317ZM106.373 8.17172V10.1456H100.148V8.17172H106.373ZM101.685 5.57744H104.237V15.7431C104.237 16.0861 104.289 16.3493 104.392 16.5326C104.5 16.7112 104.641 16.8334 104.815 16.8992C104.989 16.965 105.182 16.9979 105.393 16.9979C105.553 16.9979 105.699 16.9861 105.83 16.9626C105.967 16.9391 106.07 16.918 106.141 16.8992L106.571 18.8943C106.434 18.9413 106.239 18.993 105.986 19.0493C105.736 19.1057 105.431 19.1386 105.069 19.148C104.43 19.1668 103.854 19.0705 103.342 18.859C102.83 18.6428 102.423 18.3091 102.122 17.858C101.826 17.4068 101.681 16.8428 101.685 16.166V5.57744ZM112.916 19.2115C111.859 19.2115 110.942 18.9789 110.167 18.5136C109.391 18.0483 108.79 17.3974 108.362 16.5608C107.939 15.7243 107.727 14.7467 107.727 13.6282C107.727 12.5096 107.939 11.5297 108.362 10.6884C108.79 9.84719 109.391 9.19392 110.167 8.72864C110.942 8.26336 111.859 8.03072 112.916 8.03072C113.973 8.03072 114.89 8.26336 115.665 8.72864C116.441 9.19392 117.04 9.84719 117.463 10.6884C117.891 11.5297 118.105 12.5096 118.105 13.6282C118.105 14.7467 117.891 15.7243 117.463 16.5608C117.04 17.3974 116.441 18.0483 115.665 18.5136C114.89 18.9789 113.973 19.2115 112.916 19.2115ZM112.93 17.1671C113.503 17.1671 113.983 17.0096 114.368 16.6948C114.754 16.3752 115.04 15.9475 115.228 15.4117C115.421 14.8759 115.517 14.2791 115.517 13.6211C115.517 12.9584 115.421 12.3592 115.228 11.8234C115.04 11.283 114.754 10.8529 114.368 10.5334C113.983 10.2138 113.503 10.054 112.93 10.054C112.343 10.054 111.854 10.2138 111.464 10.5334C111.078 10.8529 110.789 11.283 110.597 11.8234C110.409 12.3592 110.315 12.9584 110.315 13.6211C110.315 14.2791 110.409 14.8759 110.597 15.4117C110.789 15.9475 111.078 16.3752 111.464 16.6948C111.854 17.0096 112.343 17.1671 112.93 17.1671ZM120.072 19V8.17172H122.546V9.97643H122.659C122.857 9.35136 123.195 8.86963 123.674 8.53125C124.158 8.18817 124.711 8.01662 125.331 8.01662C125.472 8.01662 125.63 8.02367 125.803 8.03777C125.982 8.04717 126.13 8.06362 126.248 8.08712V10.4347C126.139 10.3971 125.968 10.3642 125.733 10.336C125.503 10.3031 125.279 10.2866 125.063 10.2866C124.598 10.2866 124.18 10.3877 123.808 10.5898C123.442 10.7871 123.153 11.0621 122.941 11.4146C122.73 11.767 122.624 12.1736 122.624 12.6342V19H120.072ZM132.092 19.2115C131.007 19.2115 130.069 18.9859 129.28 18.5347C128.495 18.0788 127.891 17.435 127.468 16.6031C127.045 15.7666 126.833 14.782 126.833 13.6493C126.833 12.5355 127.045 11.5579 127.468 10.7166C127.895 9.87069 128.492 9.21272 129.258 8.74274C130.024 8.26806 130.924 8.03072 131.958 8.03072C132.626 8.03072 133.256 8.13882 133.848 8.35501C134.445 8.5665 134.971 8.89548 135.427 9.34196C135.887 9.78844 136.249 10.3571 136.512 11.048C136.776 11.7341 136.907 12.5519 136.907 13.5013V14.2838H128.032V12.5637H134.461C134.456 12.0749 134.351 11.6402 134.144 11.2595C133.937 10.8741 133.648 10.571 133.277 10.3501C132.91 10.1292 132.482 10.0187 131.994 10.0187C131.472 10.0187 131.014 10.1456 130.619 10.3994C130.224 10.6485 129.916 10.9775 129.695 11.3864C129.479 11.7905 129.369 12.2347 129.364 12.7187V14.2203C129.364 14.8501 129.479 15.3906 129.71 15.8418C129.94 16.2882 130.262 16.6313 130.675 16.871C131.089 17.106 131.573 17.2235 132.128 17.2235C132.499 17.2235 132.835 17.1718 133.136 17.0684C133.436 16.9603 133.697 16.8029 133.918 16.5961C134.139 16.3893 134.306 16.1331 134.419 15.8277L136.802 16.0955C136.651 16.7253 136.364 17.2752 135.941 17.7452C135.523 18.2104 134.987 18.5723 134.334 18.8308C133.681 19.0846 132.934 19.2115 132.092 19.2115Z" fill="#C92071"/>
</svg>
